<svg xmlns="http://www.w3.org/2000/svg" viewBox="0 0 445.56 210.69" class="design-iconfont" width="128" height="128">
  <g>
    <g fill="#50a6ad">
      <path d="M27.05,201.82a7.51,7.51,0,0,0-1.75-1.09,7.63,7.63,0,0,0,4.66-2,5.52,5.52,0,0,0,1.51-3.93,6.21,6.21,0,0,0-.91-3.3,4.88,4.88,0,0,0-2.44-2.08,13,13,0,0,0-4.45-.59H14v21.89h2.9V201h3.36a9.88,9.88,0,0,1,1.62.1,4.79,4.79,0,0,1,1.32.59,6.85,6.85,0,0,1,1.47,1.46c.55.7,1.24,1.71,2.09,3l2.9,4.55h3.64l-3.81-5.95a15,15,0,0,0-2.4-2.92m-4-3.36H16.86v-7.24h6.93a5.26,5.26,0,0,1,3.56,1,3.24,3.24,0,0,1,1.13,2.55,3.55,3.55,0,0,1-.58,2,3.3,3.3,0,0,1-1.71,1.31,9.13,9.13,0,0,1-3.1.41"></path>
      <path d="M60.97 188.8H63.87V210.70000000000002H60.97z"></path>
      <path d="M96.36,206.57l12.3-15.18V188.8H93v2.59h12.22c-.72.73-1.47,1.6-2.27,2.59L91.7,208v2.68H109v-2.58H95Z"></path>
      <path d="M184.02 205.99L172.52 188.8 169.55 188.8 169.55 210.69 172.33 210.69 172.33 193.49 183.83 210.69 186.8 210.69 186.8 188.8 184.02 188.8 184.02 205.99z"></path>
      <path d="M219.1 200.66L231.21 200.66 231.21 198.09 219.1 198.09 219.1 191.38 232.03 191.38 232.03 188.8 216.2 188.8 216.2 210.69 232.54 210.69 232.54 208.11 219.1 208.11 219.1 200.66z"></path>
      <path d="M280.83,202.87c-.44,1.79-.81,3.38-1.09,4.76a57.2,57.2,0,0,0-1.7-7.75L274.9,188.8h-3.49l-4.17,14.79c-.1.35-.43,1.71-1,4-.26-1.48-.57-3-.93-4.48L262,188.8h-3l5.81,21.89h3L272.44,194c.2-.7.41-1.56.64-2.57.07.32.3,1.18.69,2.57l4.61,16.68h2.8l6-21.89h-2.91Z"></path>
      <path d="M351.64,188.8l-8.41,21.89h3.08l2.41-6.63h9.15l2.55,6.63h3.31l-9-21.89Zm-2.09,12.9,2.41-6.42a29,29,0,0,0,1.18-4.18c.33,1.18.85,2.7,1.55,4.54L357,201.7Z"></path>
      <path d="M393.29 188.8L390.39 188.8 390.39 210.69 404.07 210.69 404.07 208.11 393.29 208.11 393.29 188.8z"></path>
      <path d="M434.78 188.8L431.88 188.8 431.88 210.69 445.56 210.69 445.56 208.11 434.78 208.11 434.78 188.8z"></path>
      <path d="M261.6 131.39L209.48 131.39 261.6 38.37 174.54 38.37 174.54 57.69 226.67 57.69 174.54 150.71 261.6 150.71 261.6 131.39z"></path>
      <path d="M353.77 131.39L307.77 131.39 307.77 38.37 284.83 38.37 284.83 150.71 353.77 150.71 353.77 131.39z"></path>
      <path d="M399.56 131.39L399.56 38.37 376.62 38.37 376.62 150.71 445.56 150.71 445.56 131.39 399.56 131.39z"></path>
      <path d="M101.12,75.1a36.73,36.73,0,0,0-36-36.72H0L14.06,57.68v92.53H35.55V57.68H64.39a17.42,17.42,0,0,1,1.19,34.79H41l0,0h0l42.06,57.7H110L79.63,108.52A36.72,36.72,0,0,0,101.12,75.1"></path>
      <path d="M169.16,4c.89-2.82,1.37-3.9.41-4-.53,0-2.48,3.78-3.83,5.71s-.81,3.48-2.67,7.43c-1.14,2.43-2.95,4.86-4.72,8.22-2.93,5.54-3.57,5.12-5,6.53a27.52,27.52,0,0,1-2.94,2.38c-.8.56-4.57,3.06-5.6,1.7-.35-.47-1.07-1.85,1.68-3.52a4.07,4.07,0,0,0,1.68-2.71,18.55,18.55,0,0,1,.57-2.76c.33-.68,1.07-.85.31-2.43a12.59,12.59,0,0,1-1.23-3.16c-.13-.59-.23-1.17-.33-1.69a2.61,2.61,0,0,0,.06-.27c.55-2.87-.6-3.44-.6-3.44h0a3.36,3.36,0,0,0,.52-.18,3.19,3.19,0,0,1-.62-.09,2.11,2.11,0,0,0,1.34-.81,6.44,6.44,0,0,1-1.59.39c.83-.14,1.2-1.17,1.31-1.57-.09.24-.38.66-1.31.72A22.61,22.61,0,0,1,142,9.55h0a10.68,10.68,0,0,0-9.34,1.72c-4.42,3.33-4.59,8.86-2.12,13.07h0l.1.14a6.9,6.9,0,0,0,.43.67,12.35,12.35,0,0,1,1.77,3.95,4.68,4.68,0,0,1-.13,1.54,2.1,2.1,0,0,0,.65-.57,1.34,1.34,0,0,0,.36-1,2.09,2.09,0,0,1-.06,1.12,1.19,1.19,0,0,0,.73-.38,3.94,3.94,0,0,1,.08.92,4.11,4.11,0,0,1-1.52,2.9c-1.61,1.41-3.18,1.52-6,3-2.49,1.28-4.57,1.94-5.45,8.18-.85,6-2.09,14.25-2.29,18.46s.2,5.3,2.2,16c.9,4.89,2.74,5.85,5.73,7.34.51,5.37,1,28.72-.44,37.49-.45,2.84-.62,15.05-.51,17.18s1.05,1.36.68,3.55c-.71,4.17-.46,5.82,1.12,5.82h9.56c1.78,0,4.62-1.65.36-6.73-.75-.9,1.05-1.06,1.23-2.3s-.62-4.41-.7-7c-.18-5.59.05-11,.05-12.65,0-2.25,1-15.49,1.68-24.86a106,106,0,0,1,1.4,21.37c-.38,5.62-1.1,20.12-1,21.56a6,6,0,0,0,1.56,2.95s-.63,3.75-1,5.56c-.3,1.45,1,2.11,3,2.11h12c2.39,0,2.34-1.69-.12-3.45-1.3-.94-5.65-4.48-5.65-4.48s2.54-2.23,2.57-3.43.08-4,.11-9.47c0-9.33.55-15.34-.12-24.54-.28-3.87-.43-13.38-.49-18.19,2.06-.4,1.63-2.68,1.44-11.35-.24-11.09-2.13-23.22,3.32-36,.9-1.51,1.77-2.91,2.64-4.54.15-.28.52-3.59.65-3.83.36-.69,1.67-3.33,2.54-5s3.07-7.93,3.78-10.12c1.72-5.33,2.19-4.73,3.35-6.66s-1.34-4.45-1-5.63M145.6,11.74v0l0,0h0"></path>
      <path d="M147.84,9.72a.81.81,0,0,0,0-.18l0,.18"></path>
    </g>
  </g>
</svg>