<svg xmlns="http://www.w3.org/2000/svg" viewBox="0 0 11.136 12" class="design-iconfont">
  <g fill="#dfdfdf">
    <path d="M172.247-1463.718H168.2l-.12-1.03a.277.277,0,0,0-.275-.245h-1.793a.277.277,0,0,0-.274.241l-.132,1.031h-4.048a.223.223,0,0,0-.223.223v.55a.223.223,0,0,0,.223.223h10.69a.223.223,0,0,0,.223-.223v-.55A.223.223,0,0,0,172.247-1463.718Z" transform="translate(-161.334 1464.992)"/>
    <path d="M251.854-1238.5H244.17a.573.573,0,0,0-.622.534l.306,7.924a.581.581,0,0,0,.622.5h7.073a.581.581,0,0,0,.622-.5l.306-7.924A.573.573,0,0,0,251.854-1238.5Zm-5.417,6.277a.2.2,0,0,1-.2.2.2.2,0,0,1-.2-.2v-3.594a.2.2,0,0,1,.2-.2.2.2,0,0,1,.2.2Zm1.769,0a.2.2,0,0,1-.2.2.2.2,0,0,1-.2-.2v-3.594a.2.2,0,0,1,.2-.2.2.2,0,0,1,.2.2Zm1.769,0a.2.2,0,0,1-.2.2.2.2,0,0,1-.2-.2v-3.594a.2.2,0,0,1,.2-.2.2.2,0,0,1,.2.2Z" transform="translate(-242.444 1241.544)"/>
  </g>
</svg>
