<svg xmlns="http://www.w3.org/2000/svg" viewBox="0 0 11.136 12" class="design-iconfont">
  <path d="M1679.036,1408.084h-4.29v-.289c0-1.139-.649-2.071-1.443-2.071h-5.057c-.1,0-.173.112-.173.249v11.5c0,.137.078.249.173.249h10.789c.1,0,.173-.112.173-.249v-9.143C1679.21,1408.2,1679.132,1408.084,1679.036,1408.084Zm-2.877,4.216c0,.007,0,.015,0,.022s0,0,0,.006,0,.015,0,.023h0c0,.008,0,.016,0,.024v0a.364.364,0,0,1-.015.048h0a.373.373,0,0,1-.023.048h0l-.014.022v0l-.016.021h0l-.016.018,0,0-2,2.145a.425.425,0,0,1-.568.039.355.355,0,0,1-.042-.527l1.422-1.528h-3.113a.374.374,0,1,1,0-.747h3.02l-1.369-1.269a.354.354,0,0,1,0-.528.425.425,0,0,1,.57,0l2.055,1.905h0l.017.017,0,.005.013.015,0,0,.016.021h0l.014.022h0a.363.363,0,0,1,.024.048h0a.367.367,0,0,1,.015.049v0c0,.008,0,.016,0,.024v0c0,.007,0,.014,0,.022s0,0,0,.006,0,.015,0,.023Z" transform="translate(-1668.074 -1405.724)" fill="#dfdfdf"/>
</svg>
