<svg xmlns="http://www.w3.org/2000/svg" viewBox="0 0 14 14.034" class="design-iconfont">
  <g fill="#707070">
    <path d="M2404.528,178.885l-2.633-2.655a6.164,6.164,0,1,0-1.266,1.263l2.63,2.651a.894.894,0,1,0,1.27-1.259Zm-12.549-6.344a4.974,4.974,0,1,1,4.974,4.974A4.98,4.98,0,0,1,2391.979,172.541Z" transform="translate(-2390.787 -166.375)"/>
    <path d="M2636.5,349.583c-.013-.016-.026-.031-.041-.045l-1.974-1.973a.6.6,0,1,0-.843.843l1.552,1.552-1.552,1.552a.6.6,0,1,0,.843.843l1.974-1.973a.6.6,0,0,0,.041-.8Z" transform="translate(-2628.647 -343.794)"/>
  </g>
</svg>
