<svg xmlns="http://www.w3.org/2000/svg" viewBox="0 0 18 12.667" class="design-iconfont">
  <g fill="#b9b9b9">
    <path d="M13.575,22.919A4.361,4.361,0,0,1,19.7,16.8l1.482-1.481A7.777,7.777,0,0,0,17,13.925c-4.971,0-9,6.3-9,6.3a19.266,19.266,0,0,0,3.969,4.3Z" transform="translate(-8 -13.925)"/>
    <path d="M27.922,18.351l-1.606,1.606a4.361,4.361,0,0,1-6.124,6.124l-1.482,1.482a7.776,7.776,0,0,0,4.18,1.388c4.971,0,9-6.3,9-6.3A19.266,19.266,0,0,0,27.922,18.351Z" transform="translate(-13.891 -16.359)"/>
    <path d="M22,24.619a2.688,2.688,0,0,0,.461,1.509l3.746-3.746A2.7,2.7,0,0,0,22,24.619Z" transform="translate(-15.703 -18.323)"/>
    <path d="M28.853,26.071a2.685,2.685,0,0,0-.461-1.509l-3.746,3.746a2.7,2.7,0,0,0,4.207-2.236Z" transform="translate(-17.155 -19.775)"/>
    <path d="M38.593,15.809l1.089-1.089c.1-.1.02-.346-.181-.546s-.445-.282-.546-.181l-1.089,1.089c-.1.1-.02.345.181.546S38.492,15.91,38.593,15.809Z" transform="translate(-24.402 -13.939)"/>
    <path d="M15.058,37.889l-1.089,1.089c-.1.1-.02.346.181.546s.446.282.546.181l1.089-1.089c.1-.1.02-.345-.181-.546S15.159,37.788,15.058,37.889Z" transform="translate(-11.259 -27.081)"/>
  </g>
</svg>
