<svg xmlns="http://www.w3.org/2000/svg" viewBox="0 0 14 16.644" class="design-iconfont">
  <path d="M188.588,122.427c-.333-1.069-.716-1.968-1.3-3.439.092-3.863-1.515-6.988-5.214-6.988-3.741,0-5.311,3.187-5.211,6.988-.591,1.473-.972,2.365-1.3,3.439-.707,2.278-.479,3.22-.3,3.241.374.046,1.458-1.714,1.458-1.714a4.542,4.542,0,0,0,1.66,3.308c-.549.169-1.783.622-1.49,1.119.237.4,4.082.256,5.191.131,1.109.125,4.953.27,5.191-.131.293-.5-.942-.951-1.49-1.119a4.549,4.549,0,0,0,1.66-3.308s1.084,1.76,1.458,1.714C189.066,125.645,189.3,124.7,188.588,122.427Z" transform="translate(-175.071 -112)" fill="#3f4bbd"/>
</svg>
