<svg xmlns="http://www.w3.org/2000/svg" viewBox="0 0 194 91.749" class="design-iconfont">
  <path d="M19.682,194.48A3.271,3.271,0,0,0,18.92,194a3.322,3.322,0,0,0,2.029-.871,2.4,2.4,0,0,0,.657-1.711,2.7,2.7,0,0,0-.4-1.437,2.125,2.125,0,0,0-1.062-.906,5.661,5.661,0,0,0-1.938-.257H14v9.531h1.263v-4.232h1.463a4.3,4.3,0,0,1,.705.044,2.085,2.085,0,0,1,.575.257,2.983,2.983,0,0,1,.64.636c.239.3.54.745.91,1.306l1.263,1.981H22.4l-1.659-2.591a6.531,6.531,0,0,0-1.045-1.271m-1.742-1.463H15.245v-3.152h3.017a2.29,2.29,0,0,1,1.55.435,1.411,1.411,0,0,1,.492,1.11,1.546,1.546,0,0,1-.253.871,1.437,1.437,0,0,1-.745.57,3.976,3.976,0,0,1-1.35.179" transform="translate(-7.904 -106.606)" fill="#fff"/>
  <path d="M60.97,188.8h1.263v9.535H60.97Z" transform="translate(-34.423 -106.595)" fill="#fff"/>
  <path d="M93.729,196.537l5.356-6.609V188.8H92.266v1.128h5.321c-.313.318-.64.7-.988,1.128l-4.9,6.1v1.167h7.533V197.2h-6.1Z" transform="translate(-51.773 -106.595)" fill="#fff"/>
  <path d="M175.85,196.285l-5.007-7.485H169.55v9.531h1.21v-7.489l5.007,7.489h1.293V188.8h-1.21Z" transform="translate(-95.727 -106.595)" fill="#fff"/>
  <path d="M217.463,193.964h5.273v-1.119h-5.273v-2.922h5.63V188.8H216.2v9.531h7.115v-1.123h-5.852Z" transform="translate(-122.065 -106.595)" fill="#fff"/>
  <path d="M268.5,194.921c-.192.779-.353,1.472-.475,2.073a24.908,24.908,0,0,0-.74-3.374l-1.367-4.824H264.4l-1.816,6.44c-.044.152-.187.745-.435,1.742-.113-.644-.248-1.306-.4-1.951l-1.441-6.231H259l2.53,9.531h1.306l2.016-7.267c.087-.3.179-.679.279-1.119.03.139.131.514.3,1.119l2.007,7.263h1.219l2.612-9.531H270Z" transform="translate(-146.23 -106.589)" fill="#fff"/>
  <path d="M346.892,188.8l-3.662,9.531h1.341l1.049-2.887H349.6l1.11,2.887h1.441l-3.919-9.531Zm-.91,5.617,1.049-2.8a12.629,12.629,0,0,0,.514-1.82c.144.514.37,1.176.675,1.977l1.006,2.639Z" transform="translate(-193.785 -106.595)" fill="#fff"/>
  <path d="M391.653,188.8H390.39v9.531h5.956v-1.123h-4.694Z" transform="translate(-220.411 -106.595)" fill="#fff"/>
  <path d="M433.143,188.8H431.88v9.531h5.956v-1.123h-4.694Z" transform="translate(-243.836 -106.595)" fill="#fff"/>
  <path d="M212.447,78.872H189.753l22.693-40.5H174.54v8.412h22.7l-22.7,40.5h37.907Z" transform="translate(-98.544 -21.663)" fill="#fff"/>
  <path d="M314.847,78.872H294.818V38.37H284.83V87.284h30.017Z" transform="translate(-160.813 -21.663)" fill="#fff"/>
  <path d="M386.608,78.872V38.37H376.62V87.284h30.017V78.872Z" transform="translate(-212.637 -21.663)" fill="#fff"/>
  <path d="M44.028,54.368A15.992,15.992,0,0,0,28.355,38.38H0l6.122,8.4V87.072h9.357V46.783H28.036a7.585,7.585,0,0,1,.518,15.148h-10.7L36.165,87.054h11.73L34.671,68.919a15.988,15.988,0,0,0,9.357-14.551" transform="translate(0 -21.669)" fill="#fff"/>
  <path d="M140.933,1.742c.388-1.228.6-1.7.179-1.742-.231,0-1.08,1.646-1.668,2.486S139.091,4,138.281,5.721c-.5,1.058-1.284,2.116-2.055,3.579-1.276,2.412-1.554,2.229-2.177,2.843a11.981,11.981,0,0,1-1.28,1.036c-.348.244-1.99,1.332-2.438.74-.152-.2-.466-.806.731-1.533a1.772,1.772,0,0,0,.731-1.18,8.075,8.075,0,0,1,.248-1.2c.144-.3.466-.37.135-1.058a5.481,5.481,0,0,1-.536-1.376c-.057-.257-.1-.509-.144-.736a1.134,1.134,0,0,0,.026-.118c.239-1.25-.261-1.5-.261-1.5h0a1.463,1.463,0,0,0,.226-.078,1.389,1.389,0,0,1-.27-.039.919.919,0,0,0,.583-.353,2.8,2.8,0,0,1-.692.17c.361-.061.522-.509.57-.684-.039.1-.165.287-.57.313a9.845,9.845,0,0,1-2-.392h0a4.65,4.65,0,0,0-4.067.749,4.232,4.232,0,0,0-.923,5.691h0l.044.061a3,3,0,0,0,.187.292,5.377,5.377,0,0,1,.771,1.72,2.038,2.038,0,0,1-.057.671.914.914,0,0,0,.283-.248.584.584,0,0,0,.157-.435.91.91,0,0,1-.026.488.518.518,0,0,0,.318-.165,1.716,1.716,0,0,1,.035.4,1.79,1.79,0,0,1-.662,1.263,13.477,13.477,0,0,1-2.612,1.306c-1.084.557-1.99.845-2.373,3.562-.37,2.612-.91,6.2-1,8.038s.087,2.308.958,6.967a3.635,3.635,0,0,0,2.495,3.2c.222,2.338.435,12.5-.192,16.323-.2,1.237-.27,6.553-.222,7.48s.457.592.3,1.546c-.309,1.816-.2,2.534.488,2.534h4.162c.775,0,2.012-.718.157-2.93-.327-.392.457-.462.536-1s-.27-1.92-.3-3.048c-.078-2.434.022-4.789.022-5.508,0-.98.435-6.744.731-10.824a46.153,46.153,0,0,1,.61,9.3c-.165,2.447-.479,8.76-.435,9.387a2.612,2.612,0,0,0,.679,1.284s-.274,1.633-.435,2.421c-.131.631.435.919,1.306.919h5.225c1.041,0,1.019-.736-.052-1.5-.566-.409-2.46-1.951-2.46-1.951s1.106-.971,1.119-1.493.035-1.742.048-4.123c0-4.062.239-6.679-.052-10.685-.122-1.685-.187-5.826-.213-7.92.9-.174.71-1.167.627-4.942-.1-4.829-.927-10.11,1.446-15.675.392-.657.771-1.267,1.149-1.977.065-.122.226-1.563.283-1.668.157-.3.727-1.45,1.106-2.177S139.6,8.033,139.9,7.08a7.1,7.1,0,0,1,1.459-2.9c.505-.84-.583-1.938-.435-2.451M130.674,5.112h0" transform="translate(-67.279)" fill="#fff"/>
  <path d="M147.84,9.618a.353.353,0,0,0,0-.078v.078" transform="translate(-83.469 -5.386)" fill="#fff"/>
</svg>
