<svg xmlns="http://www.w3.org/2000/svg" viewBox="0 0 18.151 16" class="design-iconfont">
  <g fill="#d54e5c">
    <path d="M21.358,23.8h0a5.033,5.033,0,0,0-.55-.374,3.162,3.162,0,0,0,.027-1.09,2.219,2.219,0,0,0-.492-1.1,2.487,2.487,0,0,0-1.91-.89,4.153,4.153,0,0,0-1.546.288c-.028-.075-.06-.15-.095-.227a2.432,2.432,0,0,0-3.1-1.313,7.185,7.185,0,0,0-2.876,1.634A10.809,10.809,0,0,0,9.665,21.92c-.2.246-.351.442-.432.562A6.321,6.321,0,0,0,8.141,24.85a5.065,5.065,0,0,0-.13,1.415c0,.036,0,.072.009.108.323,2.989,2.869,4.353,6.541,4.647,3.136.248,6.657-1.174,7.767-3.574A2.821,2.821,0,0,0,21.358,23.8Zm-6.773,4.7a2.5,2.5,0,1,1,2.5-2.5A2.5,2.5,0,0,1,14.584,28.495Z" transform="translate(-8.005 -15.048)"/>
    <path d="M33.081,17.061l-.087,1.515,0-.006a2.167,2.167,0,0,1,2.292,1.751l1.474-.36A3.662,3.662,0,0,0,33.081,17.061Z" transform="translate(-21.652 -14.026)"/>
    <path d="M33.081,10.375l-.1,1.515h0c2.952.193,4.681,1.732,5.33,4.766l1.484-.318C39.007,12.648,36.721,10.612,33.081,10.375Z" transform="translate(-21.645 -10.375)"/>
  </g>
</svg>
