<?xml version="1.0" standalone="no"?><!DOCTYPE svg PUBLIC "-//W3C//DTD SVG 1.1//EN" "http://www.w3.org/Graphics/SVG/1.1/DTD/svg11.dtd"><svg t="1644550272325" class="icon" viewBox="0 0 1024 1024" version="1.1" xmlns="http://www.w3.org/2000/svg" p-id="15858" xmlns:xlink="http://www.w3.org/1999/xlink" width="25" height="25"><defs><style type="text/css"></style></defs><path d="M609.578667 806.826667a36.693333 36.693333 0 0 0-36.181334 37.12c0 34.816-27.434667 63.061333-61.269333 63.061333-33.834667 0-61.312-28.245333-61.312-63.018667a36.693333 36.693333 0 0 0-36.181333-37.162666 36.693333 36.693333 0 0 0-36.181334 37.12c0 75.776 59.946667 137.386667 133.674667 137.386666 73.685333 0 133.632-61.610667 133.632-137.386666a36.693333 36.693333 0 0 0-36.181333-37.12z m242.901333-125.013334c-53.034667-40.917333-84.736-105.984-84.736-174.08V371.285333c-2.858667-122.624-82.944-227.157333-194.986667-254.421333-3.797333-0.853333-7.594667-1.749333-11.434666-2.389333 1.92-5.546667 3.2-11.562667 3.2-17.92C564.48 66.901333 541.013333 42.666667 512 42.666667c-29.013333 0-52.522667 24.106667-52.522667 53.973333 0 6.314667 1.28 12.288 3.157334 17.962667a251.306667 251.306667 0 0 0-108.928 51.584 264.192 264.192 0 0 0-97.365334 205.781333v135.509333c0 68.138667-31.701333 133.205333-84.736 174.08-19.2 14.848-27.050667 40.533333-19.413333 64s28.842667 39.125333 52.821333 39.125334H285.44c0.853333 0.128 1.706667 0.128 2.432 0.128h530.773333c24.064 0 45.269333-15.701333 52.906667-39.168a57.258667 57.258667 0 0 0-19.072-63.872z" p-id="15859"></path></svg>