<?xml version="1.0" standalone="no"?><!DOCTYPE svg PUBLIC "-//W3C//DTD SVG 1.1//EN" "http://www.w3.org/Graphics/SVG/1.1/DTD/svg11.dtd"><svg t="1644549896080" class="icon" viewBox="0 0 1024 1024" version="1.1" xmlns="http://www.w3.org/2000/svg" p-id="14853" width="25" height="25" xmlns:xlink="http://www.w3.org/1999/xlink"><defs><style type="text/css"></style></defs><path d="M511.999488 155.717528c-196.771549 0-356.282472 159.511947-356.282472 356.282472 0 196.771549 159.510924 356.282472 356.282472 356.282472 196.772572 0 356.282472-159.510924 356.282472-356.282472C868.281961 315.229474 708.772061 155.717528 511.999488 155.717528zM315.492976 344.029404c10.673084 1.855254 20.417005 2.320858 40.832987 2.320858l47.328935 0c-6.960529-12.992919-12.991895-21.808702-25.520233-37.585013l27.376511-10.208503c19.952424 29.697369 19.952424 29.697369 29.696346 47.792493l36.656875 0c19.024286 0 27.376511-0.464581 38.512129-2.320858l0 31.089066c-12.528338-1.855254-20.880563-2.320858-38.97671-2.320858l-115.53741 0c-19.024286 0-27.841092 0.464581-40.36943 2.320858L315.492976 344.029404zM392.981814 440.07897l-24.128537 8.815783c-7.887644-25.984814-13.920034-40.368406-26.447349-62.177108l24.592095-9.280364C379.989919 400.638703 385.557728 414.557714 392.981814 440.07897zM306.212612 450.751031c10.67206 1.856277 19.952424 2.320858 38.513152 2.320858l83.056648 0c17.632589-30.160927 24.592095-47.793516 31.088042-76.097142l27.841092 8.815783c-10.67206 27.840068-21.344121 50.113351-31.552623 67.281359l27.376511 0c17.632589 0 26.91193-0.463558 37.585013-2.320858l0 31.088042c-11.136641-1.855254-20.415982-2.319835-37.585013-2.319835l-137.809669 0c-17.632589 0-27.376511 0.463558-38.513152 2.319835L306.212612 450.751031zM308.997028 681.826873c-2.319835-1.856277-5.567809-4.176113-13.921058-9.280364 27.841092-32.480762 39.440267-52.895721 54.289464-93.729731l26.448372 9.279341c-16.70445 43.61638-32.016181 70.993914-56.144718 101.618399C315.492976 686.930101 315.492976 686.930101 308.997028 681.826873zM429.638689 686.002986c0 25.054629-8.815783 31.5516-42.224684 31.5516-10.208503 0-21.808702-0.463558-29.232788-1.391696 0-1.855254 0-2.784416 0-4.176113 0-6.496971-2.319835-15.312754-6.03239-24.127514 16.70445 3.246951 24.592095 4.176113 35.264155 4.176113 11.600199 0 15.311731-2.320858 15.311731-9.743922l0-125.746936-57.536414 0c-18.096147 0-26.912953 0.463558-38.512129 2.784416l0-30.624485c10.67206 2.320858 20.415982 2.784416 38.975686 2.784416l57.072857 0 0-21.344121c0-6.03239-0.928139-13.455453-1.856277-19.024286l30.624485 0c-0.928139 5.567809-1.856277 12.991895-1.856277 19.024286l0 21.344121 51.040467 0c16.239869 0 25.056676-0.463558 37.120432-2.784416l0 30.160927c-10.67206-1.856277-19.952424-2.320858-37.120432-2.320858l-51.040467 0L429.636642 686.002986zM470.470653 577.425082c22.73684 30.160927 29.232788 40.368406 43.61638 69.136613l-25.056676 15.312754c-12.063757-31.553647-20.880563-47.792493-40.831964-73.77833L470.470653 577.425082zM728.923006 479.05568c-11.136641-1.856277-21.808702-2.320858-40.368406-2.320858l-17.168008 0 0 202.307635c0 23.199375 0.463558 34.799574 2.784416 46.400796l-35.728736 0c1.856277-12.06478 2.784416-23.664979 2.784416-46.400796l0-202.307635-72.385611 0c-0.463558 6.03239-0.463558 6.03239-0.463558 18.09717-0.464581 61.712527-10.208503 124.353193-25.984814 166.577876-9.280364 24.593118-19.024286 42.224684-34.800597 63.568804-9.743922-9.279341-14.848173-13.455453-25.984814-19.488867 20.415982-25.51921 33.872458-52.432163 43.152822-88.159876 10.208503-39.904849 14.848173-102.081956 14.848173-208.803583 0-30.160927-0.928139-51.968605-2.319835-63.568804 2.319835 0 4.63967 0 5.567809 0 25.056676 0 71.457472-9.280364 109.969601-21.344121 19.488867-6.495948 31.089066-11.600199 42.689265-19.952424l23.663956 25.984814c-4.63967 1.39272-4.63967 1.39272-17.168008 6.495948-38.048571 15.776312-73.313749 24.593118-133.169999 34.338063l0 79.345116 117.858268 0c20.87954 0 31.552623-0.928139 42.224684-2.784416L728.92403 479.05568z" p-id="14854" fill="#1296db"></path></svg>