<?xml version="1.0" standalone="no"?><!DOCTYPE svg PUBLIC "-//W3C//DTD SVG 1.1//EN" "http://www.w3.org/Graphics/SVG/1.1/DTD/svg11.dtd"><svg t="1651714743648" class="icon" viewBox="0 0 1024 1024" version="1.1" xmlns="http://www.w3.org/2000/svg" p-id="3632" width="25" height="25" xmlns:xlink="http://www.w3.org/1999/xlink"><defs><style type="text/css">@font-face { font-family: feedback-iconfont; src: url("//at.alicdn.com/t/font_1031158_u69w8yhxdu.woff2?t=1630033759944") format("woff2"), url("//at.alicdn.com/t/font_1031158_u69w8yhxdu.woff?t=1630033759944") format("woff"), url("//at.alicdn.com/t/font_1031158_u69w8yhxdu.ttf?t=1630033759944") format("truetype"); }
</style></defs><path d="M512 112c44.748 0 90.176-13.597 136.284-40.791 35.8-21.114 81.12-16.794 112.285 10.705l175.048 154.454a96 96 0 0 1 31.024 88.668l-27.877 157.97c-6.001 34.005-37.895 57.118-72.078 52.235L816 528v352c0 53.02-42.98 96-96 96H304c-53.02 0-96-42.98-96-96V528l-50.686 7.24c-34.183 4.884-66.077-18.23-72.078-52.234L57.36 325.036a96 96 0 0 1 31.024-88.668L263.43 81.914c31.165-27.499 76.486-31.82 112.285-10.705C421.824 98.403 467.252 112 512 112z" fill="#515151" p-id="3633"></path></svg>