<svg xmlns="http://www.w3.org/2000/svg" viewBox="0 0 249.56 311.92" class="design-iconfont" width="102.40984326868373" height="128">
  <g>
    <g>
      <path d="M62.45,232.85a124.75,124.75,0,1,1,62.38,16.69L62.45,311.92Z" fill="#d54e5c"></path>
      <g fill="#fff">
        <path d="M72.78 106.96A17 17 0 1 0 72.78 140.95999999999998A17 17 0 1 0 72.78 106.96Z"></path>
        <path d="M126.78 106.96A17 17 0 1 0 126.78 140.95999999999998A17 17 0 1 0 126.78 106.96Z"></path>
        <path d="M180.78 106.96A17 17 0 1 0 180.78 140.95999999999998A17 17 0 1 0 180.78 106.96Z"></path>
      </g>
    </g>
  </g>
</svg>